<svg width="168" height="42" viewBox="0 0 168 42" fill="none" xmlns="http://www.w3.org/2000/svg">
<path fill-rule="evenodd" clip-rule="evenodd" d="M166.043 24C153.778 11.8332 124.005 14.9239 129.402 14.6632C107.192 -2.78883 83.6702 -4.29075 59.4433 8.17891C37.492 19.4768 25.2742 28.2128 9.9455 7.93066C5.12739 7.61042 3.30432 7.91825 3.30432 7.91825C3.30432 7.91825 8.48622 14.4026 13.4532 16.9968C19.4308 20.1173 28.941 21.3288 35.5987 20.4326C40.7558 19.7375 47.3184 17.5976 51.996 14.9214C61.0638 9.73545 79.743 1.5655 88.7033 1.69459C97.6636 1.82368 113.211 4.67608 126.814 17.1259C136.868 17.1259 157.099 17.1308 166.043 24Z" fill="black"/>
<path fill-rule="evenodd" clip-rule="evenodd" d="M123.087 18C123.087 18 108.681 5.50995 95.3673 5C113.156 10.2263 118.939 16.597 118.939 16.597L57.8259 17.107L123.087 18Z" fill="#057A55"/>
<path fill-rule="evenodd" clip-rule="evenodd" d="M167.637 41.5889C168.375 41.5889 161.917 41.8036 158.269 41.9214V41.9502C157.873 41.9528 157.569 41.9528 157.329 41.9528L155.872 42V41.9397C155.765 41.945 155.642 41.9502 155.488 41.9607C155.705 22.4042 125.08 24.5146 123.913 24.5931C136.122 23.4646 157.022 21.9826 158.213 40.6044L167.637 41.5889Z" fill="#057A55"/>
<path fill-rule="evenodd" clip-rule="evenodd" d="M28.913 38.9999L27.815 41.9999H0L28.913 38.9999Z" fill="#057A55"/>
<path d="M48.2207 41.9999H44.0935L47.7401 28.9925C47.7917 28.8341 47.8164 28.668 47.8164 28.4942C47.8164 27.8451 47.5854 27.518 47.1255 27.518H41.5813C40.8388 27.518 40.3273 28.0086 40.0468 28.9925L36.4002 41.9999H32.2173L37.5531 23.0485H62.1945C63.7167 23.0485 64.4778 23.856 64.4778 25.4736C64.4778 26.1559 64.3313 27.012 64.0364 28.0419L60.0453 41.9999H55.9182L59.5648 28.9925C59.6163 28.8341 59.6411 28.668 59.6411 28.4942C59.6411 27.8451 59.4101 27.518 58.9501 27.518H53.4039C52.6614 27.518 52.1499 28.0086 51.8694 28.9925L48.2207 41.9999ZM81.8837 23.0229L80.5988 27.4924H71.1749C70.3685 27.4924 69.8507 27.8374 69.6197 28.5274C69.3887 29.2174 68.968 30.6408 68.3533 32.795C67.6624 35.2202 67.3179 36.5439 67.3179 36.7663C67.3179 37.2748 67.6376 37.5278 68.277 37.5278H72.6538C73.4726 37.5278 73.9903 37.17 74.2089 36.457C74.2605 36.3778 74.3884 36.0124 74.5926 35.3633H69.8322L71.1172 30.8938H80.0419L77.4698 39.8584C77.2533 40.6046 76.9893 41.1336 76.6819 41.4504C76.3375 41.798 75.8631 41.9743 75.2608 41.9743H65.1667C64.4365 41.9743 63.8363 41.775 63.3619 41.3789C62.8112 40.9189 62.5369 40.2443 62.5369 39.3575C62.5369 38.9461 62.6132 38.4708 62.7679 37.9316C63.7146 34.4587 64.9171 30.1961 66.3753 25.1388C66.5919 24.4105 66.8477 23.8867 67.1426 23.5698C67.4891 23.2043 67.9614 23.0229 68.5637 23.0229H81.8837ZM88.3911 22.9999L82.9789 41.9743H78.794L84.2062 22.9999H88.3911Z" fill="black"/>
<path d="M97.7367 31.9999H92.8702C92.5275 31.9999 92.2467 31.8938 92.0258 31.6789C91.8049 31.4639 91.6954 31.1565 91.6954 30.7593C91.6954 30.5498 91.7264 30.324 91.7904 30.0818L93.4009 24.0066C93.5784 23.3373 93.9026 23.0026 94.3775 23.0026H100.152L99.5867 25.1248H95.542C95.1641 25.1248 94.9329 25.2934 94.8482 25.6335C94.8647 25.5519 94.5261 26.8197 93.8283 29.4397C93.8221 29.4697 93.82 29.4996 93.82 29.5295C93.82 29.7635 93.9625 29.8805 94.2495 29.8805H98.3107L97.7367 31.9999ZM107.926 24.7956L105.998 31.9999H100.247C99.9336 31.9999 99.6982 31.8639 99.5454 31.5945C99.4195 31.3605 99.3575 31.0667 99.3575 30.713C99.3575 30.4709 99.3864 30.2505 99.4442 30.0465L100.181 27.2578C100.359 26.5803 100.72 26.2402 101.269 26.2402H105.673L105.801 25.7097C105.818 25.6417 105.826 25.5791 105.826 25.5165C105.826 25.2526 105.698 25.122 105.44 25.122H100.737L101.302 22.9999H107.096C107.701 22.9999 108.004 23.3998 108.004 24.197C108.002 24.4092 107.978 24.6078 107.926 24.7956ZM105.106 28.376H102.157C101.889 28.376 101.711 28.5338 101.627 28.8494L101.515 29.233C101.492 29.3309 101.48 29.4207 101.48 29.505C101.48 29.7526 101.577 29.8778 101.771 29.8778H104.701L105.106 28.376ZM116.478 22.9999L115.904 25.122H111.217C111.023 25.122 110.85 25.1792 110.699 25.2962C110.548 25.4131 110.451 25.5492 110.412 25.707L108.715 31.9972H106.846L108.903 24.3086C109.136 23.4352 109.648 22.9999 110.437 22.9999H116.478Z" fill="black"/>
<path d="M97.464 34.0095L96.9003 35.8936H92.8695C92.6596 35.8936 92.4971 35.9443 92.3818 36.0434C92.3201 36.0965 92.2501 36.1979 92.1761 36.3453C92.1637 36.3646 92.1596 36.4153 92.1596 36.495C92.1596 36.5747 92.1576 36.6158 92.1514 36.6158C92.139 36.6496 92.1349 36.6859 92.1349 36.7269C92.1349 36.9274 92.2625 37.0264 92.5197 37.0264H95.6205C95.9682 37.0264 96.2501 37.1206 96.4702 37.3115C96.6904 37.5023 96.7994 37.7752 96.7994 38.1279C96.7994 38.3139 96.7645 38.5192 96.6966 38.739C96.5258 39.2801 96.2748 40.0699 95.9455 41.1037C95.855 41.4057 95.746 41.6182 95.6205 41.7462C95.4661 41.9129 95.2501 41.9975 94.9723 41.9975H89.2173L89.7893 40.1134H93.8118C94.176 40.1134 94.4085 39.9661 94.5114 39.6714C94.5978 39.4177 94.6513 39.297 94.674 39.3115C94.6801 39.2849 94.6822 39.2583 94.6822 39.2318C94.6822 39.024 94.5361 38.9202 94.246 38.9202H91.1452C90.8037 38.9202 90.5238 38.8235 90.3037 38.6303C90.0835 38.4371 89.9745 38.1593 89.9745 37.7994C89.9745 37.6134 90.0053 37.4129 90.0691 37.1979C90.5012 35.7197 90.7234 34.9564 90.7358 34.9033C90.8613 34.3091 91.1864 34.012 91.709 34.012H97.464V34.0095ZM105.832 36.024L104.943 38.9709H99.5628L99.4167 39.483C99.3776 39.611 99.357 39.7173 99.357 39.8042C99.357 40.0119 99.4702 40.1158 99.6986 40.1158H104.602L104.038 41.9999H98.7521C97.75 41.9999 97.25 41.6327 97.25 40.896C97.25 40.6883 97.3118 40.3719 97.4373 39.9443L99.001 34.6303C99.1266 34.2149 99.4311 34.0095 99.9146 34.0095H104.927C105.645 34.0095 106.003 34.3574 106.003 35.053C106.003 35.3139 105.945 35.6376 105.832 36.024ZM103.843 36.4153C103.855 36.3743 103.859 36.3308 103.859 36.2849C103.859 36.024 103.719 35.8936 103.441 35.8936H101.05C100.845 35.8936 100.701 35.9105 100.614 35.9443C100.495 35.9975 100.415 36.0989 100.376 36.2438L100.145 37.0868H103.655L103.843 36.4153ZM114.995 34.0095L114.423 35.8936H109.752C109.558 35.8936 109.386 35.9443 109.235 36.0482C109.085 36.1521 108.989 36.2728 108.949 36.4129L107.258 41.9975H105.396L107.445 35.1714C107.678 34.396 108.188 34.0095 108.974 34.0095H114.995ZM123.186 34.0095L117.618 41.9999H114.398L116.737 34.0095H118.536L116.711 40.1158L120.715 34.0095H123.186ZM127.192 33.9999L124.785 41.9999H122.922L125.33 33.9999H127.192ZM132.974 41.9999H128.124C127.782 41.9999 127.503 41.9057 127.282 41.7148C127.062 41.524 126.953 41.2511 126.953 40.8984C126.953 40.7124 126.984 40.5119 127.048 40.297L128.653 34.9033C128.83 34.3091 129.153 34.012 129.626 34.012H135.381L134.817 35.896H130.786C130.41 35.896 130.179 36.0458 130.095 36.3477C130.112 36.2752 129.774 37.4008 129.079 39.7269C129.072 39.7535 129.07 39.7801 129.07 39.8066C129.07 40.0144 129.212 40.1182 129.498 40.1182H133.546L132.974 41.9999ZM143.57 36.024L142.681 38.9709H137.301L137.155 39.483C137.116 39.611 137.095 39.7173 137.095 39.8042C137.095 40.0119 137.208 40.1158 137.437 40.1158H142.338L141.774 41.9999H136.488C135.486 41.9999 134.986 41.6327 134.986 40.896C134.986 40.6883 135.048 40.3719 135.173 39.9443L136.737 34.6303C136.862 34.2149 137.167 34.0095 137.651 34.0095H142.663C143.381 34.0095 143.739 34.3574 143.739 35.053C143.741 35.3139 143.685 35.6376 143.57 36.024ZM141.58 36.4153C141.593 36.3743 141.597 36.3308 141.597 36.2849C141.597 36.024 141.457 35.8936 141.179 35.8936H138.788C138.583 35.8936 138.439 35.9105 138.352 35.9443C138.233 35.9975 138.153 36.0989 138.113 36.2438L137.883 37.0868H141.393L141.58 36.4153Z" fill="black"/>
</svg>
