<svg width="20" height="20" viewBox="0 0 20 20" fill="none" xmlns="http://www.w3.org/2000/svg">
<path d="M7.0001 9.99997L9.0001 12L13.0001 7.99997M5.8351 2.69697C6.5524 2.63972 7.23338 2.35767 7.7811 1.89097C8.40001 1.36324 9.18674 1.07336 10.0001 1.07336C10.8135 1.07336 11.6002 1.36324 12.2191 1.89097C12.7668 2.35767 13.4478 2.63972 14.1651 2.69697C14.9758 2.76147 15.7371 3.1128 16.3122 3.6879C16.8873 4.263 17.2386 5.02422 17.3031 5.83497C17.3603 6.55228 17.6424 7.23325 18.1091 7.78097C18.6368 8.39988 18.9267 9.18662 18.9267 9.99997C18.9267 10.8133 18.6368 11.6001 18.1091 12.219C17.6424 12.7667 17.3603 13.4477 17.3031 14.165C17.2386 14.9757 16.8873 15.737 16.3122 16.312C15.7371 16.8871 14.9758 17.2385 14.1651 17.303C13.4478 17.3602 12.7668 17.6423 12.2191 18.109C11.6002 18.6367 10.8135 18.9266 10.0001 18.9266C9.18674 18.9266 8.40001 18.6367 7.7811 18.109C7.23338 17.6423 6.5524 17.3602 5.8351 17.303C5.02434 17.2385 4.26312 16.8871 3.68802 16.312C3.11292 15.737 2.7616 14.9757 2.6971 14.165C2.63984 13.4477 2.3578 12.7667 1.8911 12.219C1.36336 11.6001 1.07349 10.8133 1.07349 9.99997C1.07349 9.18662 1.36336 8.39988 1.8911 7.78097C2.3578 7.23325 2.63984 6.55228 2.6971 5.83497C2.7616 5.02422 3.11292 4.263 3.68802 3.6879C4.26312 3.1128 5.02434 2.76147 5.8351 2.69697Z" stroke="#6B7280" stroke-width="2" stroke-linecap="round" stroke-linejoin="round"/>
</svg>
